<svg xmlns="http://www.w3.org/2000/svg" width="1200" height="720" viewBox="0 0 1200 720">
  <rect width="1200" height="720" fill="#fbfaf6"/>
  <text x="80" y="36" font-family="Menlo, monospace" font-size="24" fill="#111827">Experiment Progress: autotuning</text>
  <text x="80" y="58" font-family="Menlo, monospace" font-size="14" fill="#6b7280">metric=primary_metric goal=higher</text>
  <line x1="80" y1="630.0" x2="1160" y2="630.0" stroke="#e5e7eb" stroke-width="1"/>
  <text x="68" y="635.0" text-anchor="end" font-family="Menlo, monospace" font-size="12" fill="#6b7280">0.6219</text>
  <line x1="80" y1="518.0" x2="1160" y2="518.0" stroke="#e5e7eb" stroke-width="1"/>
  <text x="68" y="523.0" text-anchor="end" font-family="Menlo, monospace" font-size="12" fill="#6b7280">0.6321</text>
  <line x1="80" y1="406.0" x2="1160" y2="406.0" stroke="#e5e7eb" stroke-width="1"/>
  <text x="68" y="411.0" text-anchor="end" font-family="Menlo, monospace" font-size="12" fill="#6b7280">0.6423</text>
  <line x1="80" y1="294.0" x2="1160" y2="294.0" stroke="#e5e7eb" stroke-width="1"/>
  <text x="68" y="299.0" text-anchor="end" font-family="Menlo, monospace" font-size="12" fill="#6b7280">0.6525</text>
  <line x1="80" y1="182.0" x2="1160" y2="182.0" stroke="#e5e7eb" stroke-width="1"/>
  <text x="68" y="187.0" text-anchor="end" font-family="Menlo, monospace" font-size="12" fill="#6b7280">0.6627</text>
  <line x1="80" y1="70.0" x2="1160" y2="70.0" stroke="#e5e7eb" stroke-width="1"/>
  <text x="68" y="75.0" text-anchor="end" font-family="Menlo, monospace" font-size="12" fill="#6b7280">0.6729</text>
  <line x1="80.0" y1="70" x2="80.0" y2="630" stroke="#f1f5f9" stroke-width="1"/>
  <text x="80.0" y="654" text-anchor="middle" font-family="Menlo, monospace" font-size="12" fill="#6b7280">1</text>
  <line x1="197.6" y1="70" x2="197.6" y2="630" stroke="#f1f5f9" stroke-width="1"/>
  <text x="197.6" y="654" text-anchor="middle" font-family="Menlo, monospace" font-size="12" fill="#6b7280">12</text>
  <line x1="315.2" y1="70" x2="315.2" y2="630" stroke="#f1f5f9" stroke-width="1"/>
  <text x="315.2" y="654" text-anchor="middle" font-family="Menlo, monospace" font-size="12" fill="#6b7280">23</text>
  <line x1="443.6" y1="70" x2="443.6" y2="630" stroke="#f1f5f9" stroke-width="1"/>
  <text x="443.6" y="654" text-anchor="middle" font-family="Menlo, monospace" font-size="12" fill="#6b7280">35</text>
  <line x1="561.2" y1="70" x2="561.2" y2="630" stroke="#f1f5f9" stroke-width="1"/>
  <text x="561.2" y="654" text-anchor="middle" font-family="Menlo, monospace" font-size="12" fill="#6b7280">46</text>
  <line x1="678.8" y1="70" x2="678.8" y2="630" stroke="#f1f5f9" stroke-width="1"/>
  <text x="678.8" y="654" text-anchor="middle" font-family="Menlo, monospace" font-size="12" fill="#6b7280">57</text>
  <line x1="796.4" y1="70" x2="796.4" y2="630" stroke="#f1f5f9" stroke-width="1"/>
  <text x="796.4" y="654" text-anchor="middle" font-family="Menlo, monospace" font-size="12" fill="#6b7280">68</text>
  <line x1="924.8" y1="70" x2="924.8" y2="630" stroke="#f1f5f9" stroke-width="1"/>
  <text x="924.8" y="654" text-anchor="middle" font-family="Menlo, monospace" font-size="12" fill="#6b7280">80</text>
  <line x1="1042.4" y1="70" x2="1042.4" y2="630" stroke="#f1f5f9" stroke-width="1"/>
  <text x="1042.4" y="654" text-anchor="middle" font-family="Menlo, monospace" font-size="12" fill="#6b7280">91</text>
  <line x1="1160.0" y1="70" x2="1160.0" y2="630" stroke="#f1f5f9" stroke-width="1"/>
  <text x="1160.0" y="654" text-anchor="middle" font-family="Menlo, monospace" font-size="12" fill="#6b7280">102</text>
  <line x1="80" y1="630" x2="1160" y2="630" stroke="#111827" stroke-width="2"/>
  <line x1="80" y1="70" x2="80" y2="630" stroke="#111827" stroke-width="2"/>
  <polyline fill="none" stroke="#0f766e" stroke-width="3" points="80.0,591.4 90.7,133.4 636.0,114.4 1053.1,113.2 1063.8,108.6"/>
  <circle cx="80.0" cy="591.4" r="4.5" fill="#16a34a" stroke="#111827" stroke-width="0.8"/>
  <circle cx="90.7" cy="133.4" r="4.5" fill="#16a34a" stroke="#111827" stroke-width="0.8"/>
  <circle cx="101.4" cy="148.3" r="4.5" fill="#9ca3af" stroke="#111827" stroke-width="0.8"/>
  <circle cx="112.1" cy="151.0" r="4.5" fill="#9ca3af" stroke="#111827" stroke-width="0.8"/>
  <circle cx="122.8" cy="152.5" r="4.5" fill="#9ca3af" stroke="#111827" stroke-width="0.8"/>
  <circle cx="133.5" cy="181.4" r="4.5" fill="#9ca3af" stroke="#111827" stroke-width="0.8"/>
  <circle cx="144.2" cy="161.4" r="4.5" fill="#9ca3af" stroke="#111827" stroke-width="0.8"/>
  <circle cx="154.9" cy="178.5" r="4.5" fill="#9ca3af" stroke="#111827" stroke-width="0.8"/>
  <circle cx="165.5" cy="166.7" r="4.5" fill="#9ca3af" stroke="#111827" stroke-width="0.8"/>
  <circle cx="176.2" cy="161.2" r="4.5" fill="#9ca3af" stroke="#111827" stroke-width="0.8"/>
  <circle cx="186.9" cy="179.9" r="4.5" fill="#9ca3af" stroke="#111827" stroke-width="0.8"/>
  <circle cx="197.6" cy="164.0" r="4.5" fill="#9ca3af" stroke="#111827" stroke-width="0.8"/>
  <circle cx="208.3" cy="211.7" r="4.5" fill="#9ca3af" stroke="#111827" stroke-width="0.8"/>
  <circle cx="219.0" cy="143.6" r="4.5" fill="#9ca3af" stroke="#111827" stroke-width="0.8"/>
  <circle cx="229.7" cy="185.7" r="4.5" fill="#9ca3af" stroke="#111827" stroke-width="0.8"/>
  <circle cx="240.4" cy="205.6" r="4.5" fill="#9ca3af" stroke="#111827" stroke-width="0.8"/>
  <circle cx="251.1" cy="238.1" r="4.5" fill="#9ca3af" stroke="#111827" stroke-width="0.8"/>
  <circle cx="261.8" cy="218.4" r="4.5" fill="#9ca3af" stroke="#111827" stroke-width="0.8"/>
  <circle cx="272.5" cy="166.1" r="4.5" fill="#9ca3af" stroke="#111827" stroke-width="0.8"/>
  <circle cx="283.2" cy="169.7" r="4.5" fill="#9ca3af" stroke="#111827" stroke-width="0.8"/>
  <circle cx="293.9" cy="168.6" r="4.5" fill="#9ca3af" stroke="#111827" stroke-width="0.8"/>
  <circle cx="304.6" cy="177.3" r="4.5" fill="#9ca3af" stroke="#111827" stroke-width="0.8"/>
  <circle cx="315.2" cy="169.8" r="4.5" fill="#9ca3af" stroke="#111827" stroke-width="0.8"/>
  <circle cx="325.9" cy="186.6" r="4.5" fill="#9ca3af" stroke="#111827" stroke-width="0.8"/>
  <circle cx="336.6" cy="149.6" r="4.5" fill="#9ca3af" stroke="#111827" stroke-width="0.8"/>
  <circle cx="347.3" cy="153.9" r="4.5" fill="#9ca3af" stroke="#111827" stroke-width="0.8"/>
  <circle cx="358.0" cy="183.2" r="4.5" fill="#9ca3af" stroke="#111827" stroke-width="0.8"/>
  <circle cx="368.7" cy="170.6" r="4.5" fill="#9ca3af" stroke="#111827" stroke-width="0.8"/>
  <circle cx="379.4" cy="171.0" r="4.5" fill="#9ca3af" stroke="#111827" stroke-width="0.8"/>
  <circle cx="390.1" cy="213.7" r="4.5" fill="#9ca3af" stroke="#111827" stroke-width="0.8"/>
  <circle cx="400.8" cy="163.2" r="4.5" fill="#9ca3af" stroke="#111827" stroke-width="0.8"/>
  <circle cx="411.5" cy="171.4" r="4.5" fill="#9ca3af" stroke="#111827" stroke-width="0.8"/>
  <circle cx="422.2" cy="175.1" r="4.5" fill="#9ca3af" stroke="#111827" stroke-width="0.8"/>
  <circle cx="432.9" cy="137.4" r="4.5" fill="#9ca3af" stroke="#111827" stroke-width="0.8"/>
  <circle cx="443.6" cy="171.1" r="4.5" fill="#9ca3af" stroke="#111827" stroke-width="0.8"/>
  <circle cx="454.3" cy="171.8" r="4.5" fill="#9ca3af" stroke="#111827" stroke-width="0.8"/>
  <circle cx="465.0" cy="227.1" r="4.5" fill="#9ca3af" stroke="#111827" stroke-width="0.8"/>
  <circle cx="475.6" cy="185.1" r="4.5" fill="#9ca3af" stroke="#111827" stroke-width="0.8"/>
  <circle cx="486.3" cy="174.7" r="4.5" fill="#9ca3af" stroke="#111827" stroke-width="0.8"/>
  <circle cx="497.0" cy="188.9" r="4.5" fill="#9ca3af" stroke="#111827" stroke-width="0.8"/>
  <circle cx="507.7" cy="209.5" r="4.5" fill="#9ca3af" stroke="#111827" stroke-width="0.8"/>
  <circle cx="518.4" cy="197.3" r="4.5" fill="#9ca3af" stroke="#111827" stroke-width="0.8"/>
  <circle cx="529.1" cy="192.1" r="4.5" fill="#9ca3af" stroke="#111827" stroke-width="0.8"/>
  <circle cx="539.8" cy="186.5" r="4.5" fill="#9ca3af" stroke="#111827" stroke-width="0.8"/>
  <circle cx="550.5" cy="143.7" r="4.5" fill="#9ca3af" stroke="#111827" stroke-width="0.8"/>
  <circle cx="561.2" cy="167.6" r="4.5" fill="#9ca3af" stroke="#111827" stroke-width="0.8"/>
  <circle cx="571.9" cy="208.9" r="4.5" fill="#9ca3af" stroke="#111827" stroke-width="0.8"/>
  <circle cx="582.6" cy="171.6" r="4.5" fill="#9ca3af" stroke="#111827" stroke-width="0.8"/>
  <circle cx="593.3" cy="179.9" r="4.5" fill="#9ca3af" stroke="#111827" stroke-width="0.8"/>
  <circle cx="604.0" cy="157.9" r="4.5" fill="#9ca3af" stroke="#111827" stroke-width="0.8"/>
  <circle cx="614.7" cy="251.5" r="4.5" fill="#9ca3af" stroke="#111827" stroke-width="0.8"/>
  <circle cx="625.3" cy="276.7" r="4.5" fill="#9ca3af" stroke="#111827" stroke-width="0.8"/>
  <circle cx="636.0" cy="114.4" r="4.5" fill="#16a34a" stroke="#111827" stroke-width="0.8"/>
  <circle cx="646.7" cy="231.6" r="4.5" fill="#9ca3af" stroke="#111827" stroke-width="0.8"/>
  <circle cx="657.4" cy="160.8" r="4.5" fill="#9ca3af" stroke="#111827" stroke-width="0.8"/>
  <circle cx="668.1" cy="174.4" r="4.5" fill="#9ca3af" stroke="#111827" stroke-width="0.8"/>
  <circle cx="678.8" cy="150.2" r="4.5" fill="#9ca3af" stroke="#111827" stroke-width="0.8"/>
  <circle cx="689.5" cy="259.9" r="4.5" fill="#9ca3af" stroke="#111827" stroke-width="0.8"/>
  <circle cx="700.2" cy="187.8" r="4.5" fill="#9ca3af" stroke="#111827" stroke-width="0.8"/>
  <circle cx="710.9" cy="147.7" r="4.5" fill="#9ca3af" stroke="#111827" stroke-width="0.8"/>
  <circle cx="721.6" cy="205.0" r="4.5" fill="#9ca3af" stroke="#111827" stroke-width="0.8"/>
  <circle cx="732.3" cy="146.4" r="4.5" fill="#9ca3af" stroke="#111827" stroke-width="0.8"/>
  <circle cx="743.0" cy="207.2" r="4.5" fill="#9ca3af" stroke="#111827" stroke-width="0.8"/>
  <circle cx="753.7" cy="273.7" r="4.5" fill="#9ca3af" stroke="#111827" stroke-width="0.8"/>
  <circle cx="764.4" cy="166.4" r="4.5" fill="#9ca3af" stroke="#111827" stroke-width="0.8"/>
  <circle cx="775.0" cy="228.3" r="4.5" fill="#9ca3af" stroke="#111827" stroke-width="0.8"/>
  <circle cx="785.7" cy="177.6" r="4.5" fill="#9ca3af" stroke="#111827" stroke-width="0.8"/>
  <circle cx="796.4" cy="226.9" r="4.5" fill="#9ca3af" stroke="#111827" stroke-width="0.8"/>
  <circle cx="807.1" cy="183.5" r="4.5" fill="#9ca3af" stroke="#111827" stroke-width="0.8"/>
  <circle cx="817.8" cy="159.8" r="4.5" fill="#9ca3af" stroke="#111827" stroke-width="0.8"/>
  <circle cx="828.5" cy="179.0" r="4.5" fill="#9ca3af" stroke="#111827" stroke-width="0.8"/>
  <circle cx="839.2" cy="251.6" r="4.5" fill="#9ca3af" stroke="#111827" stroke-width="0.8"/>
  <circle cx="849.9" cy="175.5" r="4.5" fill="#9ca3af" stroke="#111827" stroke-width="0.8"/>
  <circle cx="860.6" cy="202.0" r="4.5" fill="#9ca3af" stroke="#111827" stroke-width="0.8"/>
  <circle cx="871.3" cy="188.2" r="4.5" fill="#9ca3af" stroke="#111827" stroke-width="0.8"/>
  <circle cx="882.0" cy="197.7" r="4.5" fill="#9ca3af" stroke="#111827" stroke-width="0.8"/>
  <circle cx="892.7" cy="166.6" r="4.5" fill="#9ca3af" stroke="#111827" stroke-width="0.8"/>
  <circle cx="903.4" cy="159.8" r="4.5" fill="#9ca3af" stroke="#111827" stroke-width="0.8"/>
  <circle cx="914.1" cy="187.8" r="4.5" fill="#9ca3af" stroke="#111827" stroke-width="0.8"/>
  <circle cx="924.8" cy="276.9" r="4.5" fill="#9ca3af" stroke="#111827" stroke-width="0.8"/>
  <circle cx="935.4" cy="205.2" r="4.5" fill="#9ca3af" stroke="#111827" stroke-width="0.8"/>
  <circle cx="946.1" cy="194.1" r="4.5" fill="#9ca3af" stroke="#111827" stroke-width="0.8"/>
  <circle cx="956.8" cy="175.3" r="4.5" fill="#9ca3af" stroke="#111827" stroke-width="0.8"/>
  <circle cx="967.5" cy="191.2" r="4.5" fill="#9ca3af" stroke="#111827" stroke-width="0.8"/>
  <circle cx="978.2" cy="178.2" r="4.5" fill="#9ca3af" stroke="#111827" stroke-width="0.8"/>
  <circle cx="988.9" cy="256.3" r="4.5" fill="#9ca3af" stroke="#111827" stroke-width="0.8"/>
  <circle cx="999.6" cy="148.8" r="4.5" fill="#9ca3af" stroke="#111827" stroke-width="0.8"/>
  <circle cx="1010.3" cy="338.4" r="4.5" fill="#9ca3af" stroke="#111827" stroke-width="0.8"/>
  <circle cx="1021.0" cy="157.5" r="4.5" fill="#9ca3af" stroke="#111827" stroke-width="0.8"/>
  <circle cx="1031.7" cy="176.5" r="4.5" fill="#9ca3af" stroke="#111827" stroke-width="0.8"/>
  <circle cx="1042.4" cy="264.4" r="4.5" fill="#9ca3af" stroke="#111827" stroke-width="0.8"/>
  <circle cx="1053.1" cy="113.2" r="4.5" fill="#16a34a" stroke="#111827" stroke-width="0.8"/>
  <circle cx="1063.8" cy="108.6" r="4.5" fill="#16a34a" stroke="#111827" stroke-width="0.8"/>
  <circle cx="1074.5" cy="117.4" r="4.5" fill="#9ca3af" stroke="#111827" stroke-width="0.8"/>
  <circle cx="1085.1" cy="113.5" r="4.5" fill="#9ca3af" stroke="#111827" stroke-width="0.8"/>
  <circle cx="1095.8" cy="128.0" r="4.5" fill="#9ca3af" stroke="#111827" stroke-width="0.8"/>
  <circle cx="1106.5" cy="127.8" r="4.5" fill="#9ca3af" stroke="#111827" stroke-width="0.8"/>
  <circle cx="1117.2" cy="130.0" r="4.5" fill="#9ca3af" stroke="#111827" stroke-width="0.8"/>
  <circle cx="1127.9" cy="132.2" r="4.5" fill="#9ca3af" stroke="#111827" stroke-width="0.8"/>
  <circle cx="1138.6" cy="133.3" r="4.5" fill="#9ca3af" stroke="#111827" stroke-width="0.8"/>
  <circle cx="1149.3" cy="136.4" r="4.5" fill="#9ca3af" stroke="#111827" stroke-width="0.8"/>
  <circle cx="1160.0" cy="108.6" r="4.5" fill="#16a34a" stroke="#111827" stroke-width="0.8"/>
  <circle cx="1063.8" cy="108.6" r="7" fill="none" stroke="#dc2626" stroke-width="2"/>
  <text x="1075.8" y="98.6" font-family="Menlo, monospace" font-size="12" fill="#991b1b">best 0.669402</text>
  <text x="600.0" y="696" text-anchor="middle" font-family="Menlo, monospace" font-size="14" fill="#374151">Experiment #</text>
  <text x="24" y="360.0" transform="rotate(-90 24 360.0)" text-anchor="middle" font-family="Menlo, monospace" font-size="14" fill="#374151">primary_metric</text>
</svg>
